# xmcd CD database file
#
# Track frame offsets:
#	150
#	12103
#	24053
#	37306
#	49869
#	61767
#	74358
#	85674
#	99299
#	109606
#	119988
#	133175
#	145320
#
# Disc length: 2116 seconds
#
# Revision: 1
# Processed by: cddbd v1.5.2PL0 Copyright (c) Steve Scherf et al.
# Submitted via: CDex 1.83
#
DISCID=b008420d
DTITLE=Sam and Dave - Soul Men Plus
DYEAR=1967
DGENRE=Soul
TTITLE0=Soul Man (Isaac Hayes-D.Porter)
TTITLE1=May I Baby (Isaac Hayes-D.Porter)
TTITLE2=Broke Down Piece of Man (Cropper-Shamwell)
TTITLE3=Let it be me (Becaud-Curtis-Delanoe)
TTITLE4=Hold it Baby (Bonnie Rice)
TTITLE5=I'm With You (Loman Pauling)
TTITLE6=Don't Knock it (Isaac Hayes-D.Porter)
TTITLE7=Just Keep Holding on (Isbell-Jones)
TTITLE8=The Good Runs The Bad Way (Love-Jackson)
TTITLE9=Rich Kind of Poverty (Isaac HayesPaul Selph)
TTITLE10=I've Seen What Loneliness Can do (Banks-Jones)
TTITLE11=(bonus track) I Can't Stand up For Falling Down (Banks-Jones)
TTITLE12=Soothe me (Live in London)
EXTD=YEAR: 1967
EXTT0=
EXTT1=
EXTT2=
EXTT3=
EXTT4=
EXTT5=
EXTT6=
EXTT7=
EXTT8=
EXTT9=
EXTT10=
EXTT11=
EXTT12=
PLAYORDER=
